<svg xmlns="http://www.w3.org/2000/svg" width="652" height="364" fill="none" viewBox="0 0 652 364"><g clip-path="url(#clip0)"><path fill="#003833" d="M393.3 344.3H258c-11.8 0-21.3-9.6-21.3-21.3V21.7C236.7 9.9 246.3.4 258 .4h135.3c11.8 0 21.3 9.6 21.3 21.3v301.2c.1 11.8-9.5 21.4-21.3 21.4z"></path><path fill="#fff" d="M392.6 339.4H258.7c-10.3 0-18.7-8.4-18.7-18.7V22.1c0-10.3 8.4-18.7 18.7-18.7h133.9c10.3 0 18.7 8.4 18.7 18.7v298.6c0 10.3-8.3 18.7-18.7 18.7z"></path><path fill="#F7F4F4" d="M403.8 21.5v298.2c0 7-5.7 12.7-12.7 12.7h-131c-7 0-12.7-5.7-12.7-12.7V21.5c0-7 5.7-12.7 12.7-12.7H282c1.2 0 2.3.7 2.9 1.8l2.3 4.6c1.1 2.1 3.2 3.5 5.6 3.5h65.7c2.4 0 4.6-1.3 5.6-3.5l2.3-4.6c.5-1.1 1.7-1.8 2.9-1.8h21.8c7.1.1 12.7 5.7 12.7 12.7z"></path><path fill="#F7F4F4" d="M353.2 13.3h-52.9c-1.2 0-2.2-1-2.2-2.2 0-1.2 1-2.2 2.2-2.2h52.9c1.2 0 2.2 1 2.2 2.2.1 1.2-.9 2.2-2.2 2.2z"></path><path stroke="#536D6F" stroke-dasharray="2.84 2.84" stroke-linecap="round" stroke-linejoin="round" stroke-miterlimit="10" d="M383 322H265.2c-4.6 0-8.4-3.8-8.4-8.4V272c0-4.6 3.8-8.4 8.4-8.4H383c4.6 0 8.4 3.8 8.4 8.4v41.6c0 4.7-3.7 8.4-8.4 8.4zM377.1 178.9h-58.4c-3.3 0-6-2.7-6-6V144c0-3.3 2.7-6 6-6h58.4c3.3 0 6 2.7 6 6v28.9c0 3.3-2.7 6-6 6z"></path><path fill="#82ABAB" d="M389.6 254H269c-4 0-7.2-3.2-7.2-7.2v-50.9c0-4 3.2-7.2 7.2-7.2h120.7c4 0 7.2 3.2 7.2 7.2v50.9c-.1 4-3.3 7.2-7.3 7.2z"></path><path fill="#A4D6D1" d="M391.4 190.6v50.9c0 4-3.2 7.2-7.2 7.2H264.1c-4 0-7.2-3.2-7.2-7.2v-50.9c0-4 3.2-7.2 7.2-7.2h120.2c3.9 0 7.1 3.2 7.1 7.2z"></path><path fill="#fff" d="M303.3 243.4h-35.4c-2.7 0-4.9-2.2-4.9-4.9v-35.4c0-2.7 2.2-4.9 4.9-4.9h35.4c2.7 0 4.9 2.2 4.9 4.9v35.4c0 2.7-2.2 4.9-4.9 4.9zM345.3 204h-31.2c-.8 0-1.5-.7-1.5-1.5s.7-1.5 1.5-1.5h31.2c.8 0 1.5.7 1.5 1.5s-.6 1.5-1.5 1.5zM331.1 210.1h-17c-.8 0-1.5-.7-1.5-1.5s.7-1.5 1.5-1.5h17c.8 0 1.5.7 1.5 1.5s-.7 1.5-1.5 1.5zM383.3 210.1h-45.9c-.8 0-1.5-.7-1.5-1.5s.7-1.5 1.5-1.5h45.9c.8 0 1.5.7 1.5 1.5s-.7 1.5-1.5 1.5zM340.4 216.2h-26.3c-.8 0-1.5-.7-1.5-1.5s.7-1.5 1.5-1.5h26.3c.8 0 1.5.7 1.5 1.5 0 .9-.7 1.5-1.5 1.5zM362.7 216.2h-16.5c-.8 0-1.5-.7-1.5-1.5s.7-1.5 1.5-1.5h16.5c.8 0 1.5.7 1.5 1.5 0 .9-.7 1.5-1.5 1.5zM383.3 216.2h-15.2c-.8 0-1.5-.7-1.5-1.5s.7-1.5 1.5-1.5h15.2c.8 0 1.5.7 1.5 1.5 0 .9-.7 1.5-1.5 1.5zM383.3 222.4h-69.1c-.8 0-1.5-.7-1.5-1.5s.7-1.5 1.5-1.5h69.1c.8 0 1.5.7 1.5 1.5s-.7 1.5-1.5 1.5zM352.2 228.5h-38.1c-.8 0-1.5-.7-1.5-1.5s.7-1.5 1.5-1.5h38.1c.8 0 1.5.7 1.5 1.5s-.7 1.5-1.5 1.5zM383.3 228.5h-25c-.8 0-1.5-.7-1.5-1.5s.7-1.5 1.5-1.5h25c.8 0 1.5.7 1.5 1.5s-.7 1.5-1.5 1.5zM336.5 234.6h-22.4c-.8 0-1.5-.7-1.5-1.5s.7-1.5 1.5-1.5h22.4c.8 0 1.5.7 1.5 1.5s-.7 1.5-1.5 1.5zM364.9 234.6h-22.4c-.8 0-1.5-.7-1.5-1.5s.7-1.5 1.5-1.5h22.4c.8 0 1.5.7 1.5 1.5s-.7 1.5-1.5 1.5zM383.3 234.6h-13c-.8 0-1.5-.7-1.5-1.5s.7-1.5 1.5-1.5h13c.8 0 1.5.7 1.5 1.5s-.7 1.5-1.5 1.5zM345.3 240.8h-31.2c-.8 0-1.5-.7-1.5-1.5s.7-1.5 1.5-1.5h31.2c.8 0 1.5.7 1.5 1.5s-.6 1.5-1.5 1.5zM383.3 204h-31.2c-.8 0-1.5-.7-1.5-1.5s.7-1.5 1.5-1.5h31.2c.8 0 1.5.7 1.5 1.5s-.7 1.5-1.5 1.5z"></path><path fill="#0A5656" d="M391.4 190.6v2.1H256.9v-2.1c0-4 3.2-7.2 7.2-7.2h120.2c3.9 0 7.1 3.2 7.1 7.2z"></path><path fill="#DEE3FC" d="M366.1 188.2c0 .9-.7 1.7-1.7 1.7-.9 0-1.7-.7-1.7-1.7 0-.9.7-1.7 1.7-1.7.9.1 1.7.8 1.7 1.7zM374.6 188.2c0 .9-.7 1.7-1.7 1.7s-1.7-.7-1.7-1.7c0-.9.7-1.7 1.7-1.7s1.7.8 1.7 1.7zM383.1 188.2c0 .9-.7 1.7-1.7 1.7-.9 0-1.7-.7-1.7-1.7 0-.9.7-1.7 1.7-1.7 1 .1 1.7.8 1.7 1.7z"></path><path stroke="#F4454E" stroke-miterlimit="10" stroke-width=".896" d="M298.5 178.9h-26.6c-3.9 0-7.2-3.2-7.2-7.2v-26.6c0-3.9 3.2-7.2 7.2-7.2h26.6c3.9 0 7.2 3.2 7.2 7.2v26.6c0 4-3.2 7.2-7.2 7.2z"></path><path stroke="#F4454E" stroke-linecap="round" stroke-linejoin="round" stroke-miterlimit="10" stroke-width="1.672" d="M278.8 152.5l-5.9 5.9 6 5.9M291.6 152.5l5.9 5.9-6 5.9M288 152.5l-5.6 11.8"></path><path fill="#E0EBEA" d="M391.4 38v83.3c0 4.5-3.7 8.2-8.2 8.2H265c-4.5 0-8.2-3.7-8.2-8.2V38c0-4.5 3.7-8.2 8.2-8.2h118.2c4.6 0 8.2 3.7 8.2 8.2z"></path><path fill="#fff" d="M364.2 75.7c10.77 0 19.5-8.73 19.5-19.5s-8.73-19.5-19.5-19.5-19.5 8.73-19.5 19.5 8.73 19.5 19.5 19.5z"></path><path fill="#A4D6D1" d="M336 129.5h-71c-4.5 0-8.2-3.7-8.2-8.2v-13.1l31-53.8c1.6-2.8 5.7-2.8 7.3 0L318.6 95l17.4 30.1c.9 1.5.7 3.1 0 4.4z"></path><path fill="#3AC1B4" d="M366.5 129.5h-67.8L318.6 95l10.7-18.6c1.5-2.5 5.1-2.5 6.6 0l30.6 53.1z"></path><path fill="#DDD" d="M501.1 284.2h-52.3v78.6h52.3v-78.6z"></path><path fill="#BEBFBF" d="M501.088 362.775h20v-78.6h-20v78.6z"></path><path fill="#fff" d="M518.6 287.2h-14.7v2.5h14.7v-2.5zM518.6 292.6h-14.7v2.5h14.7v-2.5zM518.6 298h-14.7v2.5h14.7V298zM518.6 303.4h-14.7v2.5h14.7v-2.5zM518.6 308.8h-14.7v2.5h14.7v-2.5zM518.6 314.2h-14.7v2.5h14.7v-2.5zM518.6 319.5h-14.7v2.5h14.7v-2.5zM518.6 324.9h-14.7v2.5h14.7v-2.5zM518.6 330.3h-14.7v2.5h14.7v-2.5zM518.6 335.7h-14.7v2.5h14.7v-2.5zM518.6 341.1h-14.7v2.5h14.7v-2.5zM518.6 346.5h-14.7v2.5h14.7v-2.5zM518.6 351.9h-14.7v2.5h14.7v-2.5zM518.6 357.2h-14.7v2.5h14.7v-2.5z"></path><path fill="#03383B" d="M440.3 362.8h26.6s1.5-4.7-1.7-10.6c0 0-2.1 1.7-8.5.6 0 0-2.7 2.3-4.5 3.2-2 .8-12.6 2.9-11.9 6.8z"></path><path fill="#003833" d="M442.1 287.9c1.7 10.2 9.6 44.9 13 65.3 6.2.5 9.2-.2 10.8-.5-.3-7.1-.9-24.2-.9-31.7.1-12.7.7-29.3-4.9-38.5l-18.7 1.5c.1 1 .2 1.8.3 2.4.2.5.3 1 .4 1.5z"></path><path fill="#03383B" d="M392.2 362.8h26.6s1.5-4.7-1.7-10.6c0 0-2.1 1.7-8.5.6 0 0-2.7 2.3-4.5 3.2-2 .8-12.6 2.9-11.9 6.8z"></path><path fill="#002F2B" d="M407.7 352.6c5.1 1.3 8.8 1.1 10.5.9 1.4-8.2 3.6-26.3 5.7-34.8 3.1-13.2 6.2-31.3 4-37.8l-18.4-4.6c-.1.6-1.6 56.1-1.8 76.3z"></path><path fill="#002F2B" d="M481 257.4c-.4-3.6-.8-6.3-.8-6.3l-20.6 5-17.5 4c-6.5 1.4-14.3 3.2-21.2 4.7-7.7 1.8-12.9 7.6-11.2 15.4l1.9 9.4c10.8-.1 61.8-5 66.1-7.2 5.1-2.4 6.6-11.2 3.3-25z"></path><path fill="#003833" d="M511.8 257.4c-.4-3.6-2.1-7.5-2.1-7.5l-19.2 6.3-17.5 4c-6.5 1.4-14.3 3.2-21.2 4.7-7.7 1.8-12.9 7.6-11.2 15.4l1.9 9.4c10.8-.1 56.1-1.7 66.1-7.2 4.8-2.7 6.4-11.3 3.2-25.1z"></path><path fill="#FFCBBD" d="M454.2 227.9s9.1-4.1 11.7 0c1.4 2.3.4 6.5-2.7 8.2-3.1 1.8-20.7 9.2-37.4 13.4 0 0-.7-2.3-1.9-4.7 0 0 7.5-3.1 14.9-8.3 7.4-5.2 15.4-8.6 15.4-8.6z"></path><path fill="#FFCBBD" d="M456.4 199.4l-7.8 31.3s.8 7.9 8.8 4c8-3.9 13.3-28.8 13.3-28.8l-14.3-6.5z"></path><path fill="#DE898D" d="M469.7 216.9c-1-.2-1.9-.5-2.8-.8-.9-.3-1.8-.5-2.6-.8-7.4-2.6-11.5-5.6-11.5-5.6 2.3-10.2 5.2-17 7.7-21.5.1-.1.1-.2.2-.3.1-.1.1-.2.2-.3 1.3-2.2 3.3-4.1 5.4-5.7.2-.2.4-.3.7-.5l.9 16.3.2 1.7 1.6 17.5z"></path><path fill="#C86B6F" d="M469.7 216.9c-1-.2-1.9-.5-2.8-.8-.9-.3-1.8-.5-2.6-.8 1.6-11 3-17.9 3-17.9l.8 2 1.6 17.5z"></path><path fill="#DE898D" d="M516 188.6c-.2 4.8-1 12.6-1.8 20.4-.2 2.5-.5 5-.6 7.4-.1 1.5-2.4 9.5-2.5 10.9-.4 6.8-3.7 11.9-.6 22.3.8 2.5.9 3.8.9 4.8 0 .7-.9 1.5-1.3 1.7-1.3.8-3.9 1.3-7.1 1.7-6.2.8-14.6.9-19.7.9-6.8 0-17-1.1-18.3-2.8-1.2-1.6-.1-3.9.5-7 2.5-14.2 1.6-21.7 1.5-31.9v-.8c-.3-15.8-1.3-29.4-.6-34.3.2-.2.4-.3.7-.5 1.1-.7 2.1-1.4 3.2-2 .1 0 .2-.1.3-.2.3-.2.6-.3.9-.5.1-.1.2-.1.4-.2 2.3-1.1 5.7-2.3 7.6-3 .2-.1.5-.2.7-.2 1.8-.1 3.8-.1 5.9-.1 1.8.1 4.7.3 7.8.7 3.5.4 7.3 1.1 10.3 1.9h.1c.6.2 4.3 1.6 8.1 5.7 1.1 1.4 2.4 3.1 3.6 5.1z"></path><path fill="#C86B6F" d="M510.5 249.6c.8 2.5.9 3.8.9 4.8 0 .7-.9 1.5-1.3 1.7-1.3.8-3.9 1.3-7.1 1.7 1.3-.2 3.6-2.2 3.6-4.1 0-1.3-1.7-10.1-1.2-15.8.5-5.7 1.4-14.7-.4-22-1.8-7.2-3.4-16.8-3.4-16.8l9.9 6s1.3 1.8 2.7 4c-.2 2.5-.5 5-.6 7.4-.2 1.4-6.3 22.7-3.1 33.1z"></path><path fill="#0B0B3A" d="M466.8 146.8s.9 10.4 4.3 11.1c3.4.7 2.6-3.7 2.6-3.7l-.5-4.9-6.4-2.5z"></path><path fill="#FFCBBD" d="M482.7 184.4c-6.7-.8-4.2-7.4-3.3-8.9.2-.1 1.4-.4 1.5-.5.2-.2.4-.4.5-.8.7-1.7.4-5.2.3-5.4v-.6l.3-1.2 3.5-2.8 7.5-5.9s-2 9.9-.4 16.1c.1.5.4 1.1 1 1.5.2.1.4.2.7.3 2 .9-.6 9.5-11.6 8.2z"></path><path fill="#CC6362" d="M488.6 164.6s-.1 6.6-7.2 9.6c.7-1.7.4-5.2.3-5.4l3-2.3 3.9-1.9z"></path><path fill="#FFCBBD" d="M468.4 148.2s1.6 21.5 7.4 23.4c0 0 7.4.7 12.7-6.5 1.5-2.1 3.5-2.5 4.1-5 1-4 2.5-11.5.6-16-2.5-6.4-24.5-11.5-24.8 4.1z"></path><path fill="#0B0B3A" d="M493.4 140.6c-.1-3.9-4.1-5.4-4.1-5.4-3.9-1.8-12.1-1-20.6.8-2 .4-4.5-.8-5.9.2-1.7 1.2 0 6.5 0 6.5 3.3 9.9 15.3 6.7 18.9 5.4.9 2.5.7 6.1 2.9 7.9 1.2 1 3.3 1.1 5.5.7.3.5 1.3.9 1.5 1.6.7 2.3.6 5.9.6 8.7l1-.5c.1-.7 10.6-25.6.2-25.9z"></path><path stroke="#fff" stroke-miterlimit="10" stroke-width=".501" d="M474.4 155.5c.3 1.8-.6 3.4-2 3.7-1.4.2-2.8-1-3.1-2.8-.3-1.8.6-3.4 2-3.7 1.4-.3 2.8 1 3.1 2.8zM481.4 154.2c.3 1.8-.6 3.4-2 3.7-1.4.2-2.8-1-3.1-2.8-.3-1.8.6-3.4 2-3.7 1.5-.3 2.8 1 3.1 2.8zM474.4 155.5s.3-.5 1.9-.4M481.5 154.6l6-1"></path><path fill="#FFCBBD" d="M488 161.3c4.1 1.6 5.4-8.6 1.5-9.1-3-.3-3.1 3.8-3.1 3.8s-.8 4.4 1.6 5.3z"></path><g fill="#CC6362" opacity=".5"><path d="M489.3 153.8s-.3.3-.5.7c-.2.5-.5 1.1-.5 1.7v1c0 .3 0 .6.1.9 0 .3.1.5.1.7v.3s-.1-.1-.1-.2c-.1-.1-.2-.3-.3-.6l-.3-.9c-.1-.4-.1-.7-.1-1.1 0-.4.1-.8.3-1.1.2-.3.4-.6.6-.8.3-.6.7-.6.7-.6z" opacity=".5"></path><path d="M490 155.7s-.2 0-.4.1-.5.2-.7.5c-.2.2-.4.5-.4.7-.1.2-.1.4-.1.4l-.7-.2.2-.4c.2-.2.4-.5.8-.7.3-.2.7-.3.9-.3.2-.1.4-.1.4-.1z" opacity=".5"></path></g><path fill="#FFCBBD" d="M527.7 232.1c-1.8 2.1-8.7 3.7-12 .7-1-.9-2.2-3.4-3.4-6.4-2.9-7.8-5.7-19.4-5.7-19.4l15.4-7.9s2 8.9 3.7 17.4v.2c.6 2.7 1.1 5.4 1.5 7.7v.2c.5 2.7.8 5.5.5 7.5z"></path><path fill="#DE898D" d="M500.8 196.2c1.5 6.2 6.2 18 6.2 18 3.3.5 7.7-.1 11.3-1.4 4.2-1.5 7.2-4.7 7.2-4.7s-3.1-8.7-5.9-15c-2.5-5.6-4-7.7-5.1-8.9-1.6-1.7-4.3-3.7-6.1-4.6l-7.6 16.6z"></path><path fill="#DE898D" d="M520.3 200.2l-9.1-3.9-7.1-18.4s1.3.4 3 1.1c0 0 .1 0 .2.1 0 0 .1 0 .1.1 1.5.7 7.5 4.2 11.6 17 0 .1.1.2.1.3.4 1.5.8 2.7.9 3.3v.2c.2 0 .3.1.3.2z"></path><path fill="#FFCBBD" d="M527.7 232.1c-.1 1.1-.4 2-1 2.2-.1.1-1.4.8-1.4.9-1.9 1.2-5.3 3.1-9.6 5-10.3 4.5-25.3 9.6-33.4 12 0 0-.8-2.3-2-4.7 0 0 7.3-3.4 14.5-8.9s17.6-12.2 17.6-12.2l2.6-3.1s9.3-8.6 10.8-6.8v.2c.2.9 1 4.2 1.5 7.7v.2c.4 2.7.7 5.5.4 7.5z"></path><path fill="#FFCBBD" d="M481.3 246.9s-1.8 1.1-3.7.7c-1-.2-1.4-.6-2.2-.8-.8-.1-2.8-.4-3.8-.9s-1.4-.5-1.4.5 2 1.9 2.5 2.1c.5.3 1.2 1.2 1.3 1.3.1.1-3.3 1.9-4.2 1.5 0 0-.3.8-.1 1.3.2.5.8.6.9.8.1.2-.2.7 0 1.1.1.4.8.4 1 .9.2.6 0 .6.2 1.2s1 .7 1.1 1c.1.3.1.7.4.9.3.2 3.3-.8 4.5-1.2 1.1-.5 4-4.7 7.3-6.2l-3.8-4.2z"></path><path fill="#375F84" d="M496.7 265.9h-23.5v-2.3h23.5c.6 0 1.1.5 1.1 1.1.1.7-.4 1.2-1.1 1.2z"></path><path fill="#375F84" d="M484 265.9h-58.8c-.7 0-1.3-.5-1.5-1.1l-12-43.3c-.3-1 .5-1.9 1.5-1.9H470c1.3 0 2.5.9 2.8 2.2l12 43.2c.2.4-.2.9-.8.9z"></path><path fill="#CFE0DF" d="M481.9 265.9h-58.8c-.7 0-1.3-.5-1.5-1.1l-12-43.3c-.3-1 .5-1.9 1.5-1.9H468c1.3 0 2.5.9 2.8 2.2l12 43.2c.1.4-.3.9-.9.9z"></path><path fill="#FFCBBD" d="M248.7 237.9l6.8-7s.2-3.1.6-3.8c.4-.7 1.3-3.1 1.8-3.4.5-.3 1.4 0 1.4 0s.9-.3 1.4-.3c.4 0 1.2.4 1.2.4s1-.1 1.4-.1c.4 0 .6.1.6.1s1.6-1.9 2.4-2.5c.8-.6 2-1.8 2.4-1.8.3 0 .5.6.2 1.2-.2.6-1.3 1.7-1.3 1.7l-3.1 4.7s.5-.2.8-.4c.3-.2 2.2-1.9 2.3-2 .1-.1 1-.6 1.5-.1s-3.3 5.1-3.9 5.7c-.6.6-4 2.3-4 2.3s-3.6 6.5-4 7c-.3.5-8.5-1.7-8.5-1.7zM255.1 205.6s-3.8 22.1-7.4 22.6c0 0-14.3.6-17.5-16.8-2.8-15 8.3-18.3 13.5-17.1 5.3 1.2 12.6 1.9 11.4 11.3z"></path><path fill="#FFCBBD" d="M242.5 224.7s-2 2.7-2.7 9.2c0 0-6 .9-11.5-2 0 0 3-9.2 3.3-19.2"></path><path fill="#0B0B3A" d="M238.5 190.6c-7.8 1.7-7.2 6.6-7.2 6.6-3.7.9-4.4 2.4-4.4 9.2 0 6.8 2.5 14.9 3.8 15.5 1.3.7 9 .7 9.6.5.6-.2 3.3-6.4 2.7-7.5-.6-1.1 0-5.4 1.8-5.5 1.8-.2 1.4 2.6 1.4 2.6l1.5-.3 1.1-2.8c10.3.6 13-11.2 13-11.2-2.4-1.7-15.5-8.8-23.3-7.1z"></path><path fill="#FFCBBD" d="M151.7 339.9l7.9 1.1-2.6 9.2-8.6-2.2s-3.5-4.7 1.8-8.2c.2-.1 1.1 0 1.5.1z"></path><path fill="#8A9595" d="M210.7 316.2L199 280.9s-3.5-1.3-5.3 0c0 0-12.1 6.5-10.8 25.1 1 14 3.9 29.2 5.1 35.3l-31.1-1.1s-3.8 4.6-1.4 10.5c0 0 39.1 10.5 44.6 11.5 4.5.8 9.4 1.4 11.7-.6 4.2-3.6-1.1-45.4-1.1-45.4z"></path><path fill="#FFCBBD" d="M188.5 339.9l7.9 1.1-2.6 9.2-8.6-2.2s-3.5-4.7 1.8-8.2c.3-.1 1.1 0 1.5.1z"></path><path fill="#03383C" d="M185.6 344.7c-.2 1.8 1.4 3.5 1.1 3.9-.3.5-5.6 9.4-5.6 9.4s4 1.7 3.4 4.3h-10.2s-2.7-2.4-2.6-5.8c0 0 .7-3.9 2.5-7.4 1.8-3.5 5.9-11.4 5.9-11.4s1.2-.5 3.4.1c2.5.7 4.9 2.2 4.9 2.2s-2.3.2-2.8 4.7z"></path><path fill="#919B9B" d="M267 354.2c-2.5-9.4-26.1-49.3-34.1-60.1-16.4-7.1-33.9-13.2-33.9-13.2-7.2 1.7-10.8 16.3-6.7 26 2.8 6.7 20.7 23.4 31.6 33.3h-30.3s-3.6 5.3-.3 10.4c0 0 50.4 11.5 54.8 12.1 4.4.6 14.3 0 14.3 0s6.7-.7 4.6-8.5z"></path><path fill="#03383C" d="M148.8 344.7c-.2 1.8 1.4 3.5 1.1 3.9-.3.5-5.6 9.4-5.6 9.4s4 1.7 3.4 4.3h-10.2s-2.7-2.4-2.6-5.8c0 0 .7-3.9 2.5-7.4 1.8-3.5 5.9-11.4 5.9-11.4s1.2-.5 3.4.1c2.5.7 4.9 2.2 4.9 2.2s-2.3.2-2.8 4.7z"></path><path fill="#FFCBBD" d="M305 231.1l-16.3 28.6-11.6-11.6-9.6 14.3 2.8 1.3-1 .8s22.5 10.9 25.2 8.5c2.7-2.4 15.2-38.8 15.2-38.8l-4.7-3.1z"></path><path fill="#156165" d="M279.1 249.9s-3.1 13-9.2 19.1l-15.7-6s-7.3 12.3-14.4 21.7c-2.7 3.6-3.7 8.7-6.9 9.4-.2-.1-.4-.1-.6-.2-8.7-2.6-21.6.2-32.2-3.8-11.7-4.4-9.5-6.8-9.5-6.8s7.1-12.8 11.2-26.4c1.8-6 3.1-11.6 3.9-15.9 1.5-7.7 7.7-13.7 15.4-14.8h.3c8.9-1.1 32.2 1.6 36.7 3.6 4.5 1.8 21 20.1 21 20.1z"></path><path fill="#0F5255" d="M254.2 263s-7.3 12.3-14.4 21.7c-2.7 3.6-3.7 8.7-6.9 9.4 1.4-.5 3.8-7.9 4.6-9.6.8-1.7 2.2-3.3 5.1-9.2 2.9-5.8 6.8-14.4 6.8-14.4l4.8 2.1z"></path><path fill="#777" d="M223.9 340.2s.2-.1.7-.1c.4 0 1.1-.1 1.8-.2 1.5-.1 3.5 0 5.5.3 1 .1 2 .3 2.9.5.9.2 1.8.5 2.5.7.7.2 1.3.5 1.7.7l.6.3s-.3 0-.7-.1c-.4-.1-1-.2-1.8-.3-1.5-.2-3.4-.6-5.4-.8-1-.2-2-.3-2.9-.4-.9-.1-1.8-.2-2.5-.3-1.4-.2-2.4-.3-2.4-.3z"></path><path fill="#FFCBBD" d="M317.1 220.6c-.3 0-1.9 1.3-2.7 2l.9-1.8s1.2-1.2 1.7-1.8c.4-.7.2-1.3-.1-1.3-.2 0-1.7 1.1-2.6 1.8l.2-.4s1.2-1.2 1.7-1.8c.4-.7.2-1.3-.1-1.3-.3 0-3.2 2.3-3.2 2.3l-1.4 1.8 1-2s.5-.7.9-1.4.1-.9-.1-1.2c-.2-.2-2.1 1.2-2.6 1.7-.5.6-2 2.9-2.1 3.2l-1.6 3.3c-.1-1-.3-2.6-.4-3.6-.2-1.5-1.5-1.8-1.6-1.1 0 .7-.8 4.3-.6 6.2.2 1.9.5 3.2.6 4.3.1 1.1-1 3.3-1 3.3s4.5 2.8 5.3 2c.7-.8 2.3-2.7 3.1-4 1.1-1.7 1.8-4 1.8-4l1.4-3s1.2-1.2 1.7-1.8c.4-.8.2-1.4-.2-1.4z"></path><path stroke="#F4454E" stroke-miterlimit="10" stroke-width=".896" d="M576.9 129.5h-53.1c-3.4 0-6.2 2.8-6.2 6.2v12.5c0 3.1 2.3 5.7 5.4 6.1.4.1.8.4.8.9v6.9c0 .4.5.6.7.2l5.4-7.6c.2-.2.4-.4.7-.4h46.2c3.4 0 6.2-2.8 6.2-6.2v-12.5c0-3.4-2.7-6.1-6.1-6.1z"></path><path stroke="#F4454E" stroke-miterlimit="10" stroke-width=".896" d="M531.9 141.9c0 1.1-.9 2-2 2s-2-.9-2-2 .9-2 2-2 2 .9 2 2zM542.1 141.9c0 1.1-.9 2-2 2s-2-.9-2-2 .9-2 2-2 2 .9 2 2zM552.4 141.9c0 1.1-.9 2-2 2s-2-.9-2-2 .9-2 2-2c1 0 2 .9 2 2zM562.6 141.9c0 1.1-.9 2-2 2s-2-.9-2-2 .9-2 2-2 2 .9 2 2zM572.8 141.9c0 1.1-.9 2-2 2s-2-.9-2-2 .9-2 2-2 2 .9 2 2zM157.6 184.4h53.1c3.4 0 6.2 2.8 6.2 6.2v12.5c0 3.1-2.3 5.7-5.4 6.1-.4.1-.8.4-.8.9v6.9c0 .4-.5.6-.7.2l-5.4-7.6c-.2-.2-.4-.4-.7-.4h-46.2c-3.4 0-6.2-2.8-6.2-6.2v-12.5c-.1-3.3 2.7-6.1 6.1-6.1z"></path><path stroke="#F4454E" stroke-miterlimit="10" stroke-width=".896" d="M202.5 196.8c0 1.1.9 2 2 2s2-.9 2-2-.9-2-2-2-2 .9-2 2zM192.3 196.8c0 1.1.9 2 2 2s2-.9 2-2-.9-2-2-2-2 .9-2 2zM182.1 196.8c0 1.1.9 2 2 2s2-.9 2-2-.9-2-2-2-2 .9-2 2zM171.9 196.8c0 1.1.9 2 2 2s2-.9 2-2-.9-2-2-2-2 .9-2 2zM161.6 196.8c0 1.1.9 2 2 2s2-.9 2-2-.9-2-2-2c-1 0-2 .9-2 2z"></path><path fill="#fff" stroke="#F4454E" stroke-miterlimit="10" stroke-width=".896" d="M478 100.6h-96.7c-5.3 0-9.7-4.3-9.7-9.7 0-5.3 4.3-9.7 9.7-9.7H478c5.3 0 9.7 4.3 9.7 9.7 0 5.3-4.3 9.7-9.7 9.7z"></path><path stroke="#F4454E" stroke-miterlimit="10" stroke-width="1.672" d="M476.6 90.2c0 2.8-2.3 5.1-5.1 5.1s-5.1-2.3-5.1-5.1 2.3-5.1 5.1-5.1 5.1 2.3 5.1 5.1z"></path><path stroke="#F4454E" stroke-linecap="round" stroke-miterlimit="10" stroke-width="1.672" d="M475.1 93.9l2.8 2.8"></path><path fill="#C5272F" d="M331.5 363.2h-24.3c-4.3 0-7.7-3.5-7.7-7.7v-24.3c0-4.3 3.5-7.7 7.7-7.7h24.3c4.3 0 7.7 3.5 7.7 7.7v24.3c0 4.3-3.4 7.7-7.7 7.7z"></path><path fill="#F4454E" d="M324.3 363.2H300c-4.3 0-7.7-3.5-7.7-7.7v-24.3c0-4.3 3.5-7.7 7.7-7.7h24.3c4.3 0 7.7 3.5 7.7 7.7v24.3c0 4.3-3.5 7.7-7.7 7.7z"></path><path fill="#fff" d="M307.4 335.9l11.4 6.6c.7.4.7 1.4 0 1.8l-11.4 6.6c-.7.4-1.6-.1-1.6-.9v-13.2c0-.8.9-1.3 1.6-.9z"></path><path fill="#73B1AB" d="M583.2 363.2h-31.8c-5.6 0-10.1-4.5-10.1-10.1v-31.8c0-5.6 4.5-10.1 10.1-10.1h31.8c5.6 0 10.1 4.5 10.1 10.1v31.8c0 5.6-4.5 10.1-10.1 10.1z"></path><path fill="#84C3BD" d="M573.7 363.2h-31.8c-5.6 0-10.1-4.5-10.1-10.1v-31.8c0-5.6 4.5-10.1 10.1-10.1h31.8c5.6 0 10.1 4.5 10.1 10.1v31.8c0 5.6-4.5 10.1-10.1 10.1z"></path><path fill="#fff" d="M564.1 324c0 3.4-2.8 6.2-6.2 6.2-3.4 0-6.2-2.8-6.2-6.2 0-3.4 2.8-6.2 6.2-6.2 3.4 0 6.2 2.8 6.2 6.2zM570.8 345.2v9.2c0 .8-.7 1.5-1.5 1.5h-23c-.8 0-1.5-.7-1.5-1.5v-9.2c0-7.2 5.8-13 13-13 7.2-.1 13 5.8 13 13z"></path><path fill="#BFE8E5" d="M441.6 111.7h-20.4c-.8 0-1.5-.7-1.5-1.5s.7-1.5 1.5-1.5h20.4c.8 0 1.5.7 1.5 1.5.1.8-.6 1.5-1.5 1.5zM462.1 111.7h-14.8c-.8 0-1.5-.7-1.5-1.5s.7-1.5 1.5-1.5h14.8c.8 0 1.5.7 1.5 1.5s-.7 1.5-1.5 1.5zM429.9 118.4h-8.7c-.8 0-1.5-.7-1.5-1.5s.7-1.5 1.5-1.5h8.7c.8 0 1.5.7 1.5 1.5s-.7 1.5-1.5 1.5zM462.1 118.4h-27c-.8 0-1.5-.7-1.5-1.5s.7-1.5 1.5-1.5h27c.8 0 1.5.7 1.5 1.5s-.7 1.5-1.5 1.5zM448.1 125.2h-26.9c-.8 0-1.5-.7-1.5-1.5s.7-1.5 1.5-1.5h26.9c.8 0 1.5.7 1.5 1.5.1.8-.6 1.5-1.5 1.5zM462.1 125.2h-8.7c-.8 0-1.5-.7-1.5-1.5s.7-1.5 1.5-1.5h8.7c.8 0 1.5.7 1.5 1.5s-.7 1.5-1.5 1.5z"></path><path fill="#84C3BD" d="M182.9 268.5h-71.3c-2.1 0-3.8-1.7-3.8-3.8v-36c0-2.1 1.7-3.8 3.8-3.8h71.3c2.1 0 3.8 1.7 3.8 3.8v36c.1 2.1-1.6 3.8-3.8 3.8z"></path><path stroke="#fff" stroke-linecap="round" stroke-miterlimit="10" stroke-width=".896" d="M111.2 230.7h72.2"></path><path fill="#fff" d="M181.5 228.6c.497 0 .9-.403.9-.9s-.403-.9-.9-.9-.9.403-.9.9.403.9.9.9zM176.9 228.6c.497 0 .9-.403.9-.9s-.403-.9-.9-.9-.9.403-.9.9.403.9.9.9zM172.4 228.6c.497 0 .9-.403.9-.9s-.403-.9-.9-.9-.9.403-.9.9.403.9.9.9zM124.6 236.6h-12.3c-.7 0-1.2-.5-1.2-1.2s.5-1.2 1.2-1.2h12.3c.7 0 1.2.5 1.2 1.2s-.5 1.2-1.2 1.2zM124.6 242.2h-12.3c-.7 0-1.2-.5-1.2-1.2s.5-1.2 1.2-1.2h12.3c.7 0 1.2.5 1.2 1.2 0 .6-.5 1.2-1.2 1.2zM124.6 247.8h-12.3c-.7 0-1.2-.5-1.2-1.2s.5-1.2 1.2-1.2h12.3c.7 0 1.2.5 1.2 1.2 0 .6-.5 1.2-1.2 1.2zM124.6 253.4h-12.3c-.7 0-1.2-.5-1.2-1.2s.5-1.2 1.2-1.2h12.3c.7 0 1.2.5 1.2 1.2 0 .6-.5 1.2-1.2 1.2zM124.6 258.9h-12.3c-.7 0-1.2-.5-1.2-1.2s.5-1.2 1.2-1.2h12.3c.7 0 1.2.5 1.2 1.2s-.5 1.2-1.2 1.2zM124.6 264.5h-12.3c-.7 0-1.2-.5-1.2-1.2s.5-1.2 1.2-1.2h12.3c.7 0 1.2.5 1.2 1.2s-.5 1.2-1.2 1.2zM182.2 236.6h-52.8c-.7 0-1.2-.5-1.2-1.2s.5-1.2 1.2-1.2h52.8c.7 0 1.2.5 1.2 1.2s-.5 1.2-1.2 1.2zM182.2 242.2h-52.8c-.7 0-1.2-.5-1.2-1.2s.5-1.2 1.2-1.2h52.8c.7 0 1.2.5 1.2 1.2 0 .6-.5 1.2-1.2 1.2zM182.2 247.8h-52.8c-.7 0-1.2-.5-1.2-1.2s.5-1.2 1.2-1.2h52.8c.7 0 1.2.5 1.2 1.2 0 .6-.5 1.2-1.2 1.2zM182.2 253.4h-52.8c-.7 0-1.2-.5-1.2-1.2s.5-1.2 1.2-1.2h52.8c.7 0 1.2.5 1.2 1.2 0 .6-.5 1.2-1.2 1.2zM182.2 258.9h-52.8c-.7 0-1.2-.5-1.2-1.2s.5-1.2 1.2-1.2h52.8c.7 0 1.2.5 1.2 1.2s-.5 1.2-1.2 1.2zM182.2 264.5h-52.8c-.7 0-1.2-.5-1.2-1.2s.5-1.2 1.2-1.2h52.8c.7 0 1.2.5 1.2 1.2s-.5 1.2-1.2 1.2z"></path><path stroke="#3AC1B4" stroke-miterlimit="10" stroke-width=".79" d="M553.136 40.493c4.182-17.456-6.578-34.996-24.034-39.179-17.455-4.182-34.996 6.578-39.178 24.034-4.183 17.456 6.578 34.997 24.033 39.179 17.456 4.182 34.997-6.578 39.179-24.034z"></path><path fill="#3AC1B4" d="M532.962 58.81c14.294-6.324 20.754-23.037 14.43-37.33-6.323-14.294-23.037-20.754-37.33-14.43-14.293 6.323-20.754 23.037-14.43 37.33 6.323 14.293 23.037 20.754 37.33 14.43z"></path><path fill="#fff" d="M524.1 32.9c0 1.4-1.2 2.6-2.6 2.6-1.4 0-2.6-1.2-2.6-2.6 0-1.4 1.2-2.6 2.6-2.6 1.5 0 2.6 1.2 2.6 2.6z"></path><path fill="#fff" d="M521.3 32.4c-.4.2-.9.1-1.1-.3l-8.3-15c-.2-.4-.1-.9.3-1.1.4-.2.9-.1 1.1.3l8.3 15c.2.4 0 .9-.3 1.1zM521.9 33.3c.3-.3.8-.3 1.1 0l7.2 7.2c.3.3.3.8 0 1.1-.3.3-.8.3-1.1 0l-7.2-7.2c-.3-.3-.3-.8 0-1.1z"></path><path stroke="#fff" stroke-linecap="round" stroke-miterlimit="10" stroke-width="2" d="M521.7 10.3V7M544.2 33.1h3.2M521.4 55.5v3.3M498.9 32.7h-3.2"></path><g opacity=".5"><path stroke="#3AC1B4" stroke-linecap="round" stroke-miterlimit="10" d="M510.4 13.2l-1.7-2.8M541.2 21.7l2.8-1.6M532.7 52.6l1.6 2.8M501.9 44.1l-2.9 1.6" opacity=".5"></path></g><g opacity=".5"><path stroke="#3AC1B4" stroke-linecap="round" stroke-miterlimit="10" d="M502 21.4l-2.8-1.6M533 13.4l1.6-2.8M541 44.4l2.8 1.6M510.1 52.4l-1.7 2.8" opacity=".5"></path></g><path fill="#698683" d="M154.5 120.7h-35.7c-5.3 0-9.6-4.3-9.6-9.6V75.4c0-5.3 4.3-9.6 9.6-9.6h35.7c5.3 0 9.6 4.3 9.6 9.6v35.7c0 5.3-4.3 9.6-9.6 9.6z"></path><path fill="#76928F" stroke="#fff" stroke-miterlimit="10" d="M152.2 115.9h-39.5c-4.2 0-7.7-3.4-7.7-7.7V68.7c0-4.2 3.4-7.7 7.7-7.7h39.5c4.2 0 7.7 3.4 7.7 7.7v39.5c-.1 4.3-3.5 7.7-7.7 7.7z"></path><path fill="#fff" d="M141.9 82.2h-.3v-3.1c0-5.2-4.2-9.4-9.3-9.4-5.2 0-9.3 4.2-9.3 9.4v3.1h-.1c-1.4 0-2.6 1.2-2.6 2.6v11.8c0 1.4 1.2 2.6 2.6 2.6h19c1.4 0 2.6-1.2 2.6-2.6V84.8c0-1.4-1.1-2.6-2.6-2.6zm-16.6-3.1c0-3.8 3.1-7 7-7 3.8 0 7 3.1 7 7v3.1h-14v-3.1z"></path><path fill="#76928F" d="M135.5 88.3c0-1.9-1.7-3.4-3.7-3-1.2.2-2.1 1.2-2.4 2.3-.3 1.4.4 2.7 1.4 3.3.2.1.3.4.3.6l-.5 2c-.3 1.2.6 2.3 1.8 2.3 1.2 0 2.1-1.1 1.8-2.3l-.5-1.9c-.1-.2.1-.5.3-.6.9-.6 1.5-1.5 1.5-2.7z"></path><path fill="#fff" d="M143.4 103.5h-22c-.6 0-1.1-.5-1.1-1.1 0-.6.5-1.1 1.1-1.1h22c.6 0 1.1.5 1.1 1.1 0 .6-.5 1.1-1.1 1.1zM143.4 107.3h-22c-.6 0-1.1-.5-1.1-1.1 0-.6.5-1.1 1.1-1.1h22c.6 0 1.1.5 1.1 1.1 0 .6-.5 1.1-1.1 1.1z"></path><path fill="#698683" d="M567.2 260.9h-21c-3.1 0-5.6-2.5-5.6-5.6v-21c0-3.1 2.5-5.6 5.6-5.6h21c3.1 0 5.6 2.5 5.6 5.6v21c.1 3.1-2.4 5.6-5.6 5.6z"></path><path fill="#76928F" stroke="#fff" stroke-miterlimit="10" d="M565.9 258.1h-23.3c-2.5 0-4.5-2-4.5-4.5v-23.3c0-2.5 2-4.5 4.5-4.5h23.3c2.5 0 4.5 2 4.5 4.5v23.3c0 2.5-2 4.5-4.5 4.5z"></path><path fill="#fff" d="M547.7 251.6h-.3c-.5-.1-.8-.7-.7-1.2l4.9-17.3c.1-.5.7-.8 1.2-.7.5.1.8.7.7 1.2l-4.9 17.3c-.1.5-.5.7-.9.7zM555.9 251.6h-.3c-.5-.1-.8-.7-.7-1.2l4.9-17.3c.1-.5.7-.8 1.2-.7.5.1.8.7.7 1.2l-4.9 17.3c-.1.5-.5.7-.9.7z"></path><path fill="#fff" d="M562.9 239.1h-17.3c-.6 0-1-.4-1-1s.4-1 1-1h17.3c.6 0 1 .4 1 1s-.5 1-1 1zM562.9 247h-17.3c-.6 0-1-.4-1-1s.4-1 1-1h17.3c.6 0 1 .4 1 1 0 .5-.5 1-1 1z"></path><path fill="#BFE8E5" d="M177.5 158.4H165c-.8 0-1.4-.6-1.4-1.4 0-.8.6-1.4 1.4-1.4h12.5c.8 0 1.4.6 1.4 1.4 0 .8-.6 1.4-1.4 1.4zM190.1 164.5H165c-.8 0-1.4-.6-1.4-1.4 0-.8.6-1.4 1.4-1.4h25.1c.8 0 1.4.6 1.4 1.4 0 .8-.6 1.4-1.4 1.4zM168 170.6h-3c-.8 0-1.4-.6-1.4-1.4 0-.8.6-1.4 1.4-1.4h3c.8 0 1.4.6 1.4 1.4 0 .7-.6 1.4-1.4 1.4zM190.1 170.6h-17.5c-.8 0-1.4-.6-1.4-1.4 0-.8.6-1.4 1.4-1.4h17.5c.8 0 1.4.6 1.4 1.4 0 .7-.6 1.4-1.4 1.4zM190.1 158.4h-7.6c-.8 0-1.4-.6-1.4-1.4 0-.8.6-1.4 1.4-1.4h7.6c.8 0 1.4.6 1.4 1.4 0 .8-.6 1.4-1.4 1.4z"></path><path stroke="#003833" stroke-linecap="round" stroke-miterlimit="10" stroke-width="2" d="M.6 362.8h650.2"></path></g><defs><clipPath id="clip0"><path fill="#fff" d="M0 0H651.3V363.3H0z"></path></clipPath></defs></svg>