<svg id="visual" viewBox="0 0 960 540" width="960" height="540" xmlns="http://www.w3.org/2000/svg" xmlns:xlink="http://www.w3.org/1999/xlink" version="1.1"><rect width="960" height="540" fill="#135d4d"></rect><g><g transform="translate(786 234)"><path d="M0 -89.8L77.8 -44.9L77.8 44.9L0 89.8L-77.8 44.9L-77.8 -44.9Z" fill="none" stroke="#001122" stroke-width="2"></path></g><g transform="translate(82 78)"><path d="M0 -78L67.5 -39L67.5 39L0 78L-67.5 39L-67.5 -39Z" fill="none" stroke="#001122" stroke-width="2"></path></g><g transform="translate(96 354)"><path d="M0 -86L74.5 -43L74.5 43L0 86L-74.5 43L-74.5 -43Z" stroke="#001122" fill="none" stroke-width="2"></path></g><g transform="translate(296 8)"><path d="M0 -81L70.1 -40.5L70.1 40.5L0 81L-70.1 40.5L-70.1 -40.5Z" stroke="#001122" fill="none" stroke-width="2"></path></g><g transform="translate(342 293)"><path d="M0 -81L70.1 -40.5L70.1 40.5L0 81L-70.1 40.5L-70.1 -40.5Z" stroke="#001122" fill="none" stroke-width="2"></path></g><g transform="translate(221 505)"><path d="M0 -87L75.3 -43.5L75.3 43.5L0 87L-75.3 43.5L-75.3 -43.5Z" stroke="#001122" fill="none" stroke-width="2"></path></g></g></svg>